HIERARCHY
ROOT Hips
{
	OFFSET 0.000000 35.082581 0.000000
	CHANNELS 6 Xposition Yposition Zposition Xrotation Yrotation Zrotation 
	JOINT Spine
	{
		OFFSET 0.000000 6.876099 0.125700
		CHANNELS 3 Xrotation Yrotation Zrotation
		JOINT Spine1
		{
			OFFSET 0.000000 5.730043 0.104720
			CHANNELS 3 Xrotation Yrotation Zrotation
			JOINT Spine1_split
			{
				OFFSET 0.000000 5.730043 0.104720
				CHANNELS 3 Xrotation Yrotation Zrotation
				JOINT Spine2
				{
					OFFSET 0.000000 5.730043 0.104720
					CHANNELS 3 Xrotation Yrotation Zrotation
					JOINT Neck
					{
						OFFSET 0.000000 10.314075 0.188496
						CHANNELS 3 Xrotation Yrotation Zrotation
						JOINT Head
						{
							OFFSET 0.000000 7.643700 -2.377400
							CHANNELS 3 Xrotation Yrotation Zrotation
							JOINT HeadTop_End
							{
								OFFSET 0.000000 43.788605 -13.619600
								CHANNELS 3 Xrotation Yrotation Zrotation
								End Site
								{
									OFFSET 0.000000 0.000000 0.000000
								}
							}
						}
					}
					JOINT LeftShoulder
					{
						OFFSET 2.196100 4.412489 0.087492
						CHANNELS 3 Xrotation Yrotation Zrotation
						JOINT LeftShoulder_split
						{
							OFFSET 2.196100 4.412489 0.087492
							CHANNELS 3 Xrotation Yrotation Zrotation
							JOINT LeftArm
							{
								OFFSET 8.771219 -2.981674 -0.026999
								CHANNELS 3 Xrotation Yrotation Zrotation
								JOINT LeftForeArm
								{
									OFFSET 8.512804 0.000000 -0.000000
									CHANNELS 3 Xrotation Yrotation Zrotation
									JOINT LeftHand
									{
										OFFSET 18.484802 0.000000 -0.000000
										CHANNELS 3 Xrotation Yrotation Zrotation
										JOINT LeftHandThumb1
										{
											OFFSET 2.499420 -1.158070 2.653252
											CHANNELS 3 Xrotation Yrotation Zrotation
											JOINT LeftHandThumb2
											{
												OFFSET 2.370079 -1.368366 1.368366
												CHANNELS 3 Xrotation Yrotation Zrotation
												JOINT LeftHandThumb3
												{
													OFFSET 2.676727 -1.545410 1.545409
													CHANNELS 3 Xrotation Yrotation Zrotation
													JOINT LeftHandThumb4
													{
														OFFSET 1.692226 -0.977005 0.977007
														CHANNELS 3 Xrotation Yrotation Zrotation
														End Site
														{
															OFFSET 0.000000 0.000000 0.000000
														}
													}
												}
											}
										}
										JOINT LeftHandIndex1
										{
											OFFSET 7.924831 -0.457527 2.345128
											CHANNELS 3 Xrotation Yrotation Zrotation
											JOINT LeftHandIndex2
											{
												OFFSET 3.643303 0.000000 0.000000
												CHANNELS 3 Xrotation Yrotation Zrotation
												JOINT LeftHandIndex3
												{
													OFFSET 3.810799 0.000000 0.000000
													CHANNELS 3 Xrotation Yrotation Zrotation
													JOINT LeftHandIndex4
													{
														OFFSET 2.403702 0.000000 0.000000
														CHANNELS 3 Xrotation Yrotation Zrotation
														End Site
														{
															OFFSET 0.000000 0.000000 0.000000
														}
													}
												}
											}
										}
										JOINT LeftHandMiddle1
										{
											OFFSET 8.563995 0.000000 -0.000000
											CHANNELS 3 Xrotation Yrotation Zrotation
											JOINT LeftHandMiddle2
											{
												OFFSET 3.861618 0.000000 0.000000
												CHANNELS 3 Xrotation Yrotation Zrotation
												JOINT LeftHandMiddle3
												{
													OFFSET 3.701603 0.000000 0.000000
													CHANNELS 3 Xrotation Yrotation Zrotation
													JOINT LeftHandMiddle4
													{
														OFFSET 2.322544 0.000000 0.000000
														CHANNELS 3 Xrotation Yrotation Zrotation
														End Site
														{
															OFFSET 0.000000 0.000000 0.000000
														}
													}
												}
											}
										}
										JOINT LeftHandRing1
										{
											OFFSET 8.426460 -0.424637 -3.286992
											CHANNELS 3 Xrotation Yrotation Zrotation
											JOINT LeftHandRing2
											{
												OFFSET 3.126408 0.000000 0.000000
												CHANNELS 3 Xrotation Yrotation Zrotation
												JOINT LeftHandRing3
												{
													OFFSET 3.085026 0.000000 0.000000
													CHANNELS 3 Xrotation Yrotation Zrotation
													JOINT LeftHandRing4
													{
														OFFSET 1.644005 0.000000 0.000000
														CHANNELS 3 Xrotation Yrotation Zrotation
														End Site
														{
															OFFSET 0.000000 0.000000 0.000000
														}
													}
												}
											}
										}
									}
								}
							}
						}
					}
					JOINT RightShoulder
					{
						OFFSET -2.196100 4.412496 0.070690
						CHANNELS 3 Xrotation Yrotation Zrotation
						JOINT RightShoulder_split
						{
							OFFSET -2.196100 4.412496 0.070690
							CHANNELS 3 Xrotation Yrotation Zrotation
							JOINT RightArm
							{
								OFFSET -8.771282 -2.981682 -0.094208
								CHANNELS 3 Xrotation Yrotation Zrotation
								JOINT RightForeArm
								{
									OFFSET -8.494598 0.000000 0.000000
									CHANNELS 3 Xrotation Yrotation Zrotation
									JOINT RightHand
									{
										OFFSET -18.483803 0.000000 0.000001
										CHANNELS 3 Xrotation Yrotation Zrotation
										JOINT RightHandThumb1
										{
											OFFSET -2.527351 -1.008072 2.575253
											CHANNELS 3 Xrotation Yrotation Zrotation
											JOINT RightHandThumb2
											{
												OFFSET -2.321518 -1.340328 1.340329
												CHANNELS 3 Xrotation Yrotation Zrotation
												JOINT RightHandThumb3
												{
													OFFSET -2.657753 -1.534454 1.534455
													CHANNELS 3 Xrotation Yrotation Zrotation
													JOINT RightHandThumb4
													{
														OFFSET -1.807510 -1.043568 1.043567
														CHANNELS 3 Xrotation Yrotation Zrotation
														End Site
														{
															OFFSET 0.000000 0.000000 0.000000
														}
													}
												}
											}
										}
										JOINT RightHandIndex1
										{
											OFFSET -8.811420 0.015533 2.887987
											CHANNELS 3 Xrotation Yrotation Zrotation
											JOINT RightHandIndex2
											{
												OFFSET -3.537502 0.000000 0.000000
												CHANNELS 3 Xrotation Yrotation Zrotation
												JOINT RightHandIndex3
												{
													OFFSET -3.356201 0.000000 0.000000
													CHANNELS 3 Xrotation Yrotation Zrotation
													JOINT RightHandIndex4
													{
														OFFSET -1.933098 0.000000 0.000000
														CHANNELS 3 Xrotation Yrotation Zrotation
														End Site
														{
															OFFSET 0.000000 0.000000 0.000000
														}
													}
												}
											}
										}
										JOINT RightHandMiddle1
										{
											OFFSET -8.178135 0.000000 0.000000
											CHANNELS 3 Xrotation Yrotation Zrotation
											JOINT RightHandMiddle2
											{
												OFFSET -3.901302 0.000000 0.000000
												CHANNELS 3 Xrotation Yrotation Zrotation
												JOINT RightHandMiddle3
												{
													OFFSET -3.909599 0.000000 0.000000
													CHANNELS 3 Xrotation Yrotation Zrotation
													JOINT RightHandMiddle4
													{
														OFFSET -2.376003 0.000000 0.000000
														CHANNELS 3 Xrotation Yrotation Zrotation
														End Site
														{
															OFFSET 0.000000 0.000000 0.000000
														}
													}
												}
											}
										}
										JOINT RightHandRing1
										{
											OFFSET -7.559013 0.014137 -2.865403
											CHANNELS 3 Xrotation Yrotation Zrotation
											JOINT RightHandRing2
											{
												OFFSET -3.449306 0.000000 0.000000
												CHANNELS 3 Xrotation Yrotation Zrotation
												JOINT RightHandRing3
												{
													OFFSET -3.362106 0.000000 0.000000
													CHANNELS 3 Xrotation Yrotation Zrotation
													JOINT RightHandRing4
													{
														OFFSET -2.076401 0.000000 0.000000
														CHANNELS 3 Xrotation Yrotation Zrotation
														End Site
														{
															OFFSET 0.000000 0.000000 0.000000
														}
													}
												}
											}
										}
									}
								}
							}
						}
					}
				}
			}
		}
	}
	JOINT LeftUpLeg
	{
		OFFSET 10.205400 -3.823500 0.155100
		CHANNELS 3 Xrotation Yrotation Zrotation
		JOINT LeftLeg
		{
			OFFSET 0.708757 -12.982077 0.567790
			CHANNELS 3 Xrotation Yrotation Zrotation
			JOINT LeftFoot
			{
				OFFSET -0.708756 -10.717838 -2.184338
				CHANNELS 3 Xrotation Yrotation Zrotation
				JOINT LeftToeBase
				{
					OFFSET 0.108149 -7.191104 7.560241
					CHANNELS 3 Xrotation Yrotation Zrotation
					JOINT LeftToe_End
					{
						OFFSET 0.070230 0.081724 4.490308
						CHANNELS 3 Xrotation Yrotation Zrotation
						End Site
						{
							OFFSET 0.000000 0.000000 0.000000
						}
					}
				}
			}
		}
	}
	JOINT RightUpLeg
	{
		OFFSET -10.205400 -3.823500 0.005500
		CHANNELS 3 Xrotation Yrotation Zrotation
		JOINT RightLeg
		{
			OFFSET -0.708756 -12.982134 0.610632
			CHANNELS 3 Xrotation Yrotation Zrotation
			JOINT RightFoot
			{
				OFFSET 0.708754 -10.717769 -1.945823
				CHANNELS 3 Xrotation Yrotation Zrotation
				JOINT RightToeBase
				{
					OFFSET -0.108140 -7.191069 7.372968
					CHANNELS 3 Xrotation Yrotation Zrotation
					JOINT RightToe_End
					{
						OFFSET -0.070227 0.081735 4.479403
						CHANNELS 3 Xrotation Yrotation Zrotation
						End Site
						{
							OFFSET 0.000000 0.000000 0.000000
						}
					}
				}
			}
		}
	}
}
MOTION
Frames: 4
Frame Time: 0.016667
1.276377 28.777922 -0.747117 21.692240 -3.687751 -25.884952 9.710082 0.701540 -17.668921 6.445039 2.740808 -10.688248 0.000000 0.000000 0.000000 6.249407 2.693590 -10.811397 -0.796413 4.356715 -3.690197 -8.154881 18.426618 -3.530661 -0.000001 0.000000 0.000001 0.763379 -2.243206 16.026803 0.000000 0.000000 0.000000 -56.139613 -44.766644 -98.210020 -0.000006 -55.603890 0.000013 -74.109711 -27.707909 14.239192 35.234559 -17.219585 -17.236874 29.406833 28.726539 -29.411785 9.113600 14.378720 -9.922579 -0.000001 0.000001 -0.000002 0.797687 3.221899 -27.804747 0.799591 3.225532 -27.838613 0.202682 1.661533 -13.908066 0.000000 0.000002 -0.000002 0.796792 3.220218 -27.788715 0.800498 3.227228 -27.854645 0.202690 1.661529 -13.908049 0.000002 -0.000001 0.000001 0.797694 3.221915 -27.804756 0.799603 3.225522 -27.838613 0.202673 1.661521 -13.908055 -0.000001 -0.000001 0.000002 -0.201843 -4.974898 1.334820 0.000000 0.000000 0.000000 -165.753296 118.380183 181.246856 -0.000030 71.160169 0.000005 -23.198510 1.097474 -16.760413 40.606653 -3.110554 26.124237 -37.849510 -44.265011 -46.874953 -12.282874 -22.415229 -17.633346 -0.000001 -0.000000 0.000001 3.635334 -6.111001 61.464497 7.728625 -6.904473 96.464462 2.305160 -5.174795 47.998748 0.000001 -0.000001 -0.000001 3.635320 -6.111004 61.464517 7.728631 -6.904483 96.464462 2.305155 -5.174793 47.998748 -0.000001 -0.000001 -0.000001 3.635325 -6.111000 61.464510 7.728628 -6.904469 96.464469 2.305157 -5.174798 47.998741 0.000002 -0.000000 -0.000000 -92.983880 -18.060924 20.885656 87.008714 -7.215286 11.915082 -17.866697 -0.992695 -8.076621 -0.000051 0.000006 0.000006 -0.000000 0.000000 0.000000 -13.228622 -25.405911 17.466616 18.496383 -10.997917 -1.188529 -12.326717 -9.529033 14.184822 -0.050677 -0.000009 -0.000002 0.000000 0.000004 -0.000000 
1.277060 28.826082 -0.744193 21.478781 -3.962837 -25.518741 9.770394 0.677294 -17.587128 6.493361 2.713988 -10.616027 0.000000 0.000000 0.000000 6.300768 2.667746 -10.739131 0.207061 4.314711 -3.404707 -7.207429 18.522102 -2.767398 -0.000001 0.000000 -0.000002 0.722178 -2.099715 15.969512 0.000000 0.000000 0.000000 -55.551479 -45.310819 -97.712611 0.000005 -55.602999 0.000010 -74.614776 -26.963241 14.427209 35.234555 -17.219587 -17.236877 29.406833 28.726533 -29.411785 9.113603 14.378716 -9.922570 -0.000004 0.000000 0.000001 0.797687 3.221899 -27.804749 0.799594 3.225534 -27.838615 0.202679 1.661533 -13.908067 -0.000001 -0.000000 -0.000001 0.796791 3.220219 -27.788719 0.800494 3.227228 -27.854649 0.202686 1.661527 -13.908046 -0.000001 0.000000 -0.000001 0.797690 3.221916 -27.804758 0.799604 3.225524 -27.838613 0.202675 1.661522 -13.908055 -0.000001 -0.000001 0.000001 -0.173803 -4.568118 0.662842 0.000000 0.000000 0.000000 -166.330379 118.064615 182.609998 0.000039 70.533943 -0.000035 -24.020018 1.292599 -16.773071 40.606653 -3.110555 26.124236 -37.849504 -44.265008 -46.874963 -12.282871 -22.415236 -17.633349 0.000002 0.000000 0.000003 3.635330 -6.111001 61.464497 7.728629 -6.904474 96.464462 2.305160 -5.174797 47.998751 0.000003 -0.000000 0.000000 3.635320 -6.111005 61.464517 7.728632 -6.904485 96.464469 2.305150 -5.174793 47.998751 0.000000 -0.000000 -0.000000 3.635325 -6.111000 61.464510 7.728631 -6.904470 96.464469 2.305161 -5.174797 47.998741 -0.000001 -0.000000 -0.000000 -92.370966 -17.443687 21.383627 86.922094 -7.247132 11.925405 -18.216835 -0.922880 -7.921565 -0.000103 0.000001 0.000000 0.000000 -0.000000 -0.000000 -13.534016 -25.216819 17.048089 18.748004 -10.973709 -1.105092 -12.334069 -9.384496 14.069878 -0.049235 -0.000006 0.000005 0.000000 0.000006 -0.000000 
1.272276 28.872505 -0.739751 21.236052 -4.294893 -25.169368 9.817644 0.655388 -17.509757 6.534456 2.691604 -10.541829 0.000000 0.000000 0.000000 6.345209 2.646780 -10.664561 1.163593 4.299128 -3.121154 -6.113496 18.694858 -2.004239 0.000000 0.000001 0.000000 0.658055 -1.924523 15.859839 0.000000 0.000000 0.000000 -54.937957 -45.760024 -97.271545 0.000003 -55.535998 0.000012 -74.975471 -26.281381 14.629580 35.234562 -17.219587 -17.236879 29.406833 28.726529 -29.411778 9.113604 14.378720 -9.922581 -0.000001 -0.000000 -0.000002 0.797688 3.221898 -27.804749 0.799592 3.225533 -27.838615 0.202681 1.661533 -13.908063 -0.000001 -0.000002 0.000003 0.796789 3.220219 -27.788720 0.800496 3.227229 -27.854645 0.202687 1.661531 -13.908050 0.000001 0.000000 0.000001 0.797689 3.221915 -27.804758 0.799606 3.225524 -27.838613 0.202672 1.661521 -13.908055 0.000003 -0.000001 0.000001 -0.134093 -4.148858 0.057121 0.000000 0.000000 0.000000 -166.688854 117.680034 183.667502 0.000048 69.803741 -0.000028 -24.844067 1.637646 -16.745380 40.606656 -3.110553 26.124241 -37.849510 -44.265015 -46.874953 -12.282874 -22.415235 -17.633347 0.000003 0.000002 -0.000000 3.635336 -6.111001 61.464497 7.728625 -6.904473 96.464462 2.305154 -5.174798 47.998751 0.000001 -0.000000 -0.000000 3.635323 -6.111004 61.464517 7.728628 -6.904483 96.464469 2.305154 -5.174787 47.998748 -0.000004 0.000000 0.000000 3.635327 -6.111000 61.464510 7.728628 -6.904473 96.464462 2.305162 -5.174794 47.998741 0.000001 -0.000000 -0.000001 -91.702851 -16.910266 21.931883 86.887560 -7.311997 11.933059 -18.625234 -0.764960 -7.813261 -0.000152 0.000004 -0.000000 0.000000 -0.000000 0.000000 -13.813822 -24.976453 16.690040 18.954637 -10.962717 -1.041776 -12.307402 -9.218192 13.945294 -0.048205 0.000007 -0.000002 0.000000 -0.000002 -0.000000 
1.263829 28.916666 -0.736128 20.979722 -4.680715 -24.837595 9.856392 0.628928 -17.429367 6.573786 2.667605 -10.462876 0.000000 0.000000 0.000000 6.388351 2.625523 -10.584658 2.049150 4.309123 -2.841948 -4.886926 18.949339 -1.267633 -0.000000 0.000001 -0.000002 0.564461 -1.708723 15.694977 0.000000 0.000000 0.000000 -54.281450 -46.142504 -96.841373 0.000008 -55.447940 0.000004 -75.196578 -25.642149 14.845017 35.234555 -17.219590 -17.236877 29.406833 28.726529 -29.411782 9.113594 14.378714 -9.922572 -0.000006 -0.000004 -0.000008 0.797687 3.221900 -27.804749 0.799591 3.225535 -27.838615 0.202682 1.661530 -13.908061 0.000001 0.000000 -0.000000 0.796792 3.220218 -27.788715 0.800502 3.227227 -27.854644 0.202688 1.661529 -13.908058 0.000000 -0.000001 0.000000 0.797695 3.221913 -27.804756 0.799605 3.225522 -27.838615 0.202672 1.661522 -13.908052 0.000001 0.000001 -0.000004 -0.081814 -3.700179 -0.513680 0.000000 0.000000 0.000000 -166.971091 117.245224 184.572284 -0.000005 69.013399 0.000012 -25.647671 2.088050 -16.706913 40.606653 -3.110552 26.124237 -37.849507 -44.265015 -46.874960 -12.282873 -22.415229 -17.633349 -0.000001 0.000001 0.000002 3.635333 -6.111001 61.464504 7.728625 -6.904468 96.464469 2.305164 -5.174793 47.998755 0.000002 -0.000000 -0.000000 3.635322 -6.111003 61.464517 7.728630 -6.904485 96.464462 2.305153 -5.174793 47.998751 -0.000001 -0.000000 -0.000000 3.635327 -6.110998 61.464510 7.728631 -6.904469 96.464462 2.305160 -5.174796 47.998741 0.000001 0.000001 0.000000 -91.001670 -16.458422 22.506843 86.893332 -7.407668 11.937216 -19.071536 -0.515364 -7.745859 -0.000033 0.000002 0.000001 0.000000 -0.000000 -0.000000 -14.086467 -24.718528 16.387707 19.130072 -10.957926 -1.009681 -12.248262 -9.018694 13.820187 -0.047437 0.000023 -0.000003 0.000000 0.000004 -0.000000 
